<svg version="1.0" xmlns="http://www.w3.org/2000/svg"
 width="244.000000pt" height="500.000000pt" viewBox="0 0 244.000000 500.000000">

<g transform="translate(0.000000,500.000000) scale(0.100000,-0.100000)"
fill="#7b1e7e" stroke="none">
<path d="M70 4307 l0 -617 339 0 339 0 -334 612 c-184 337 -337 614 -339 617
-3 2 -5 -273 -5 -612z"/>
<path d="M70 2765 l0 -245 581 0 c548 0 580 1 575 18 -3 9 -50 118 -105 242
l-99 225 -476 3 -476 2 0 -245z"/>
<path d="M70 875 l0 -805 1135 0 c624 0 1135 2 1135 4 0 1 -184 363 -409 802
l-409 799 -726 3 -726 2 0 -805z"/>
</g>
</svg>
